# xmcd
#
# Track frame offsets:
#	150
#	20172
#	62421
#	86332
#	105394
#	122499
#	158548
#	190350
#
# Disc length: 3092 seconds
#
# Revision: 0
# Processed by: cddbd v1.5.2PL0 Copyright (c) Steve Scherf et al.
# Submitted via: audiograbber 1.83.01
#
DISCID=570c1208
DTITLE=Driftin - Midnight Spice
DYEAR=2009
DGENRE=Rock
TTITLE0=Cheap Sunglasses
TTITLE1=Funky Switch
TTITLE2=Clean Love
TTITLE3=Key to the Highway
TTITLE4=Baby what you want me to do
TTITLE5=Nothing at all
TTITLE6=Kapellmeister Blues
TTITLE7=Knocking` on Heavens Dooor
EXTD=
EXTT0=
EXTT1=
EXTT2=
EXTT3=
EXTT4=
EXTT5=
EXTT6=
EXTT7=
PLAYORDER=
